<svg width="114px" height="32px" viewBox="0 0 114 32" version="1.1" xmlns="http://www.w3.org/2000/svg" xmlns:xlink="http://www.w3.org/1999/xlink">
    <!-- Generator: Sketch 49.3 (51167) - http://www.bohemiancoding.com/sketch -->
    <desc>Created with Sketch.</desc>
    <defs></defs>
    <g id="VD-Explorations" stroke="none" stroke-width="1" fill="none" fill-rule="evenodd">
        <g id="Inc42-VD---Desktop-Hover-&amp;-Sponsored-States" transform="translate(-160.000000, -9600.000000)">
            <g id="Group-45" transform="translate(0.000000, 9552.000000)">
                <g id="Group-16" transform="translate(160.000000, 48.000000)">
                    <g id="Page-1">
                        <path d="M64.2647059,9.36404211 C61.0914265,8.74397193 57.8689706,8.42116491 55.6029412,8.42116491 C47.5905294,8.42116491 44.7058824,11.7904281 44.7058824,17.6843228 L44.7058824,23.0176561 C44.7058824,28.3591298 46.6774118,32.0001123 56.1617647,32.0001123 C58.6773088,32.0001123 61.7771029,31.7699368 64.8235294,31.158007 L64.8235294,26.3860772 C62.4395882,26.838007 60.2227353,26.9474807 56.7205882,26.9474807 C52.9613824,26.9474807 50.8529412,25.1032702 50.8529412,21.8948491 L50.8529412,18.8071298 C50.8529412,15.4131649 52.5229853,13.4737965 55.8823529,13.4737965 C56.4400588,13.4737965 57.5336765,13.4810947 58.1176471,13.629586 L58.1176471,17.1229193 L64.2647059,17.1229193 L64.2647059,9.36404211 Z M38.5588235,17.1229193 C38.5588235,10.7762526 35.6853529,8.42116491 30.4558824,8.42116491 C28.4765294,8.42116491 26.5583676,8.97555088 24.3088235,10.1053754 L23.75,8.98256842 L15.6470588,8.98256842 L15.6470588,14.0352 L19,14.0352 L19,26.9474807 L16.2058824,26.9474807 L16.2058824,32.0001123 L27.9411765,32.0001123 L27.9411765,26.9474807 L25.1470588,26.9474807 L25.1470588,14.0469895 C26.4066471,13.5947789 27.6662353,13.4737965 29.1054853,13.4737965 C32.7124118,13.4737965 32.4117647,16.6367439 32.4117647,18.8189193 L32.4117647,32.0001123 L41.9117647,32.0001123 L41.9117647,26.9474807 L38.5588235,26.9474807 L38.5588235,17.1229193 Z M9.5,26.9474807 L12.8529412,26.9474807 L12.8529412,32.0001123 L0,32.0001123 L0,26.9474807 L3.35294118,26.9474807 L3.35294118,5.05274386 L0.558823529,5.05274386 L0.558823529,0.000112280702 L12.2941176,0.000112280702 L12.2941176,5.05274386 L9.5,5.05274386 L9.5,26.9474807 Z" id="Fill-1" fill="#FFFFFF"></path>
                        <path d="M108.411765,10.6666667 C108.411765,8.33150877 107.580794,5.05263158 103.661765,5.05263158 C99.5407206,5.05263158 97.6348529,9.07396491 98.9058971,13.4736842 L93.4062353,13.4736842 C92.9896324,12.2122105 92.7406765,8.70119298 94.0729118,5.90961404 C95.5426176,2.82975439 99.0103971,0 103.591912,0 L92.2058824,0 L82.7058824,0 L70.9705882,17.6842105 L70.9705882,25.2631579 L83.5441176,25.2631579 L83.5441176,20.2105263 L76.8382353,20.2105263 L86.6176471,5.05263158 L86.8970588,5.05263158 L86.8970588,32 L92.2058824,32 C92.2058824,22.0398596 97.9788088,18.8129123 103.382353,16.5352982 C106.355574,15.2819649 108.411765,13.7369825 108.411765,10.6666667 M114,10.3859649 L114,26.9473684 L100.029412,26.9473684 C100.029412,24.1403509 102.643029,23.6623158 105.897059,21.8947368 C110.075382,19.6249825 114,16.8421053 114,10.3859649" id="Fill-4" fill="#F32735"></path>
                    </g>
                </g>
            </g>
        </g>
    </g>
</svg>
